<svg xmlns="http://www.w3.org/2000/svg" width="24" height="24" viewBox="0 0 24 24" fill="none" stroke="#ffffff" stroke-width="1.5" stroke-linecap="round" stroke-linejoin="round" class="icon icon-tabler icons-tabler-outline icon-tabler-git-pull-request-closed"><path stroke="none" d="M0 0h24v24H0z" fill="none"/><path d="M4 18a2 2 0 1 0 4 0a2 2 0 1 0 -4 0" /><path d="M4 6a2 2 0 1 0 4 0a2 2 0 1 0 -4 0" /><path d="M16 18a2 2 0 1 0 4 0a2 2 0 1 0 -4 0" /><path d="M6 8v8" /><path d="M18 11v5" /><path d="M16 4l4 4m0 -4l-4 4" /></svg>
